<svg width="79" height="68" viewBox="0 0 79 68" fill="none" xmlns="http://www.w3.org/2000/svg">
<path d="M78.5039 0.435481V12.5598C72.1227 13.6233 67.6559 15.8567 65.1034 19.26C62.5509 22.6633 61.2747 28.7255 61.2747 37.4465H77.5467V67.7572L46.2789 67.7572V42.2324C46.2789 29.0445 48.725 18.8346 53.6172 11.6026C58.5095 4.15784 66.8051 0.435481 78.5039 0.435481ZM32.5593 0.435481V12.5598C26.1781 13.6233 21.7112 15.8567 19.1588 19.26C16.6063 22.6633 15.33 28.7255 15.33 37.4465L31.6021 37.4465L31.6021 67.7572H0.334206L0.334206 42.2324C0.334206 29.0445 2.78033 18.8346 7.67259 11.6026C12.5648 4.15784 20.8604 0.435481 32.5593 0.435481Z" fill="#F8BE00" fill-opacity="0.25"/>
</svg>
