<svg width="19" height="17" viewBox="0 0 19 17" fill="none" xmlns="http://www.w3.org/2000/svg">
<path d="M1.79419 5.00309C2.03066 5.1875 2.74346 5.73517 3.93263 6.64584C5.12184 7.55651 6.03285 8.2577 6.66571 8.74945C6.73524 8.80335 6.88296 8.92053 7.10894 9.10113C7.33496 9.28186 7.52276 9.42791 7.6722 9.53931C7.82174 9.65067 8.00253 9.77559 8.21474 9.91389C8.42687 10.0521 8.62684 10.156 8.8146 10.2248C9.0024 10.2942 9.17624 10.3285 9.33617 10.3285H9.34665H9.35718C9.5171 10.3285 9.69101 10.2941 9.87881 10.2248C10.0665 10.156 10.2667 10.0519 10.4786 9.91389C10.6907 9.77543 10.8715 9.65063 11.021 9.53931C11.1705 9.42791 11.3582 9.28186 11.5843 9.10113C11.8102 8.92037 11.9581 8.80335 12.0277 8.74945C12.6674 8.2577 14.2948 7.00879 16.9096 5.00285C17.4172 4.61107 17.8413 4.13834 18.182 3.58497C18.523 3.03184 18.6933 2.45158 18.6933 1.84451C18.6933 1.33721 18.528 0.902955 18.1977 0.541781C17.8673 0.180526 17.4761 0 17.0242 0H1.66898C1.13353 0 0.721461 0.199786 0.432854 0.599359C0.144285 0.999012 0 1.49856 0 2.09796C0 2.58212 0.191308 3.10678 0.573741 3.67162C0.956138 4.23649 1.36309 4.68036 1.79419 5.00309Z" fill="#FFBC00"/>
<path d="M17.65 6.23647C15.3692 7.94245 13.6374 9.26827 12.4553 10.2137C12.0589 10.5363 11.7373 10.7882 11.4904 10.9687C11.2434 11.1493 10.915 11.3337 10.5046 11.5219C10.0944 11.7104 9.71206 11.8044 9.35732 11.8044H9.34669H9.3362C8.98154 11.8044 8.599 11.7104 8.18876 11.5219C7.77852 11.3337 7.44987 11.1493 7.20299 10.9687C6.95618 10.7882 6.63451 10.5363 6.23815 10.2137C5.29926 9.45288 3.57113 8.12697 1.05369 6.23647C0.657192 5.94462 0.305998 5.6101 0 5.23358V14.3865C0 14.894 0.163357 15.328 0.490254 15.6893C0.817078 16.0506 1.21007 16.2312 1.66909 16.2312H17.0244C17.4833 16.2312 17.8762 16.0506 18.2031 15.6893C18.5301 15.3279 18.6933 14.8941 18.6933 14.3865V5.23358C18.3943 5.60231 18.0466 5.93683 17.65 6.23647Z" fill="#FFBC00"/>
</svg>
