<svg width="55" height="71" viewBox="0 0 55 71" fill="none" xmlns="http://www.w3.org/2000/svg">
<path d="M28.8658 28.4867H31.0677C31.6432 28.4867 32.1095 28.0204 32.1095 27.4449C32.1095 26.8694 31.6432 26.4031 31.0677 26.4031H28.8658C28.2903 26.4031 27.824 26.8694 27.824 27.4449C27.824 28.0204 28.2904 28.4867 28.8658 28.4867Z" fill="#0A0A0A"/>
<path d="M11.1512 18.89C11.7265 18.89 12.193 18.4236 12.193 17.8482C12.193 17.2728 11.7265 16.8064 11.1512 16.8064C10.5758 16.8064 10.1094 17.2728 10.1094 17.8482C10.1094 18.4236 10.5758 18.89 11.1512 18.89Z" fill="#0A0A0A"/>
<path d="M17.587 18.89C18.1623 18.89 18.6288 18.4236 18.6288 17.8482C18.6288 17.2728 18.1623 16.8064 17.587 16.8064C17.0116 16.8064 16.5452 17.2728 16.5452 17.8482C16.5452 18.4236 17.0116 18.89 17.587 18.89Z" fill="#0A0A0A"/>
<path d="M24.023 18.89C24.5984 18.89 25.0648 18.4236 25.0648 17.8482C25.0648 17.2728 24.5984 16.8064 24.023 16.8064C23.4476 16.8064 22.9812 17.2728 22.9812 17.8482C22.9812 18.4236 23.4476 18.89 24.023 18.89Z" fill="#0A0A0A"/>
<path d="M30.459 18.89C31.0344 18.89 31.5008 18.4236 31.5008 17.8482C31.5008 17.2728 31.0344 16.8064 30.459 16.8064C29.8837 16.8064 29.4172 17.2728 29.4172 17.8482C29.4172 18.4236 29.8837 18.89 30.459 18.89Z" fill="#0A0A0A"/>
<path d="M54.6739 38.4102C54.3255 35.4517 53.4272 32.5875 51.7489 30.0227C50.8141 28.5941 49.7703 27.2371 48.8942 25.7699C45.4102 19.9332 46.8411 11.152 47.9907 4.09594C48.1562 3.07942 48.3128 2.1193 48.4504 1.19529C48.495 0.89553 48.407 0.591047 48.2091 0.361435C48.0111 0.131961 47.7228 0 47.4199 0L12.9056 0.000277813C12.3408 0.000277813 11.9327 0.000277826 11.6274 0.494368C11.498 0.703839 11.4468 0.952204 11.4832 1.19571C11.6482 2.30057 11.8301 3.40404 12.0089 4.50349C12.1597 5.43222 12.3082 6.36178 12.4475 7.29273H5.87113C2.71781 7.29273 0.152344 9.8582 0.152344 13.0115V14.8633C0.152344 19.0376 3.54833 22.4335 7.72275 22.4335H12.4497C12.2461 23.1527 11.9945 23.8578 11.6839 24.538C10.7793 26.52 9.36643 28.2144 8.18462 30.0226C7.34215 31.3115 6.68053 32.6826 6.18047 34.1349C5.25077 36.835 4.94657 39.6714 5.03741 42.5212C5.10492 44.6426 5.37217 46.7503 5.78931 48.8307C6.36425 51.6982 7.16629 54.3344 7.9625 57.127C9.07334 61.0228 10.2222 65.0512 11.8197 68.9174C11.8204 68.9189 11.821 68.9204 11.8216 68.9221C11.8523 68.9959 12.4143 70.3562 12.4143 70.3562C12.5753 70.7459 12.9555 71.0001 13.3772 71.0001H46.5566C46.9783 71.0001 47.3583 70.7459 47.5195 70.356L48.1139 68.9174C50.6949 62.6703 52.3297 55.8738 53.7718 49.8772C54.658 46.1917 55.1228 42.2229 54.6739 38.4102ZM5.87113 9.37619H12.7403C12.9244 10.7982 13.053 12.0756 13.1319 13.2628H4.47803C3.6864 13.2628 2.91506 13.0285 2.26039 12.5966C2.46694 10.7869 4.007 9.37619 5.87113 9.37619ZM14.0734 68.9164C13.909 68.5201 13.8073 68.2794 13.7366 68.1252L13.7453 68.1216C12.1932 64.3653 11.1115 60.5717 9.96623 56.5555C9.7587 55.8279 9.5509 55.0991 9.33976 54.3697C8.06321 49.9579 7.24644 46.4259 7.12004 42.4551C7.09239 41.5845 7.11073 40.7332 7.1706 39.9027C7.84832 40.2351 8.51257 40.5364 9.11904 40.8076C14.2419 43.0941 19.5968 45.6703 23.8188 49.7801C25.1173 51.0423 28.7365 54.8463 28.925 55.0935V68.8635C28.925 68.8814 28.9268 68.8989 28.9277 68.9167H14.0734V68.9164ZM29.9667 53.148C29.8251 53.0065 29.671 52.8577 29.5052 52.6996C28.7314 51.9617 28.0248 51.0941 27.2795 50.3136C26.6227 49.6256 25.9533 48.9497 25.2715 48.2863C20.8051 43.9386 15.0302 41.1641 9.96859 38.9049C9.18516 38.5548 8.3031 38.154 7.43716 37.704C7.82068 35.5027 8.53508 33.4938 9.56368 31.7504C9.61688 31.6604 10.1585 30.7914 10.1707 30.7985C11.4923 31.5592 13.3861 32.5161 15.8366 33.4272C16.3766 33.6283 16.9756 33.3533 17.1762 32.8139C17.3768 32.2745 17.1021 31.6749 16.5629 31.4743C14.3272 30.6428 12.5924 29.7777 11.3586 29.077C11.8602 28.3549 12.366 27.612 12.8281 26.8377C13.6409 25.4762 14.2147 23.9935 14.606 22.4333H39.4178C40.5426 22.4333 41.4577 21.5182 41.4577 20.3934V15.3025C41.4577 14.1778 40.5426 13.2627 39.4178 13.2627H35.4128C34.8373 13.2627 34.371 13.729 34.371 14.3045C34.371 14.8799 34.8373 15.3463 35.4128 15.3463H39.3741V20.3497H7.72275C4.7164 20.3497 2.2672 17.9192 2.23622 14.9201C2.94492 15.1994 3.70516 15.3463 4.47803 15.3463H30.5163C31.0918 15.3463 31.5581 14.8799 31.5581 14.3045C31.5581 13.729 31.0918 13.2627 30.5163 13.2627H15.2197C15.2188 13.2627 15.2073 13.1144 15.2066 13.1065C14.9367 9.94821 14.5035 6.85073 13.9958 3.74103C13.903 3.17124 13.8132 2.61964 13.7282 2.08346C19.1128 2.0836 40.8121 2.0836 46.205 2.0836C46.119 2.62603 46.0282 3.18429 45.9341 3.7609C44.73 11.1511 43.2314 20.3486 47.1053 26.838C47.5673 27.612 48.0727 28.3544 48.5741 29.0762C46.1856 30.4269 41.3791 32.694 34.596 33.7237C31.5244 34.1906 28.4093 34.1903 25.3374 33.7237C23.8673 33.5005 22.4049 33.206 20.9908 32.8488C20.4327 32.7074 19.8665 33.0459 19.7255 33.6036C19.5845 34.1616 19.9225 34.728 20.4803 34.8689C21.9594 35.2425 23.4884 35.5504 25.0245 35.7837C28.3043 36.2822 31.63 36.282 34.9091 35.7837C42.0189 34.7044 47.0272 32.3768 49.7632 30.7991C49.8096 30.7722 50.4685 31.9164 50.5128 31.9941C51.1347 33.085 51.6243 34.2446 51.9875 35.4463C52.2047 36.1706 52.3772 36.9215 52.5071 37.6985C51.6371 38.151 50.7514 38.5534 49.9655 38.9045C44.9035 41.164 39.1287 43.9384 34.6627 48.2856C33.2 49.7092 31.8426 51.2346 30.4191 52.6904C30.269 52.8439 30.1184 52.9965 29.9667 53.148ZM51.7458 49.3898C50.3214 55.3123 48.707 62.0248 46.1879 68.1217L45.8595 68.9165H31.0059C31.0067 68.8988 31.0085 68.8813 31.0085 68.8633V55.0934C31.197 54.8461 34.817 51.0412 36.1152 49.7794C40.337 45.67 45.6916 43.0938 50.8149 40.8071C51.4184 40.5374 52.0795 40.2376 52.7545 39.9067C52.9252 42.7345 52.589 45.8839 51.7458 49.3898Z" fill="#0A0A0A"/>
</svg>
